<?xml version="1.0" standalone="no"?>
<!DOCTYPE svg PUBLIC "-//W3C//DTD SVG 20010904//EN"
 "http://www.w3.org/TR/2001/REC-SVG-20010904/DTD/svg10.dtd">
<svg version="1.0" xmlns="http://www.w3.org/2000/svg"
 width="512.000000pt" height="512.000000pt" viewBox="0 0 512.000000 512.000000"
 preserveAspectRatio="xMidYMid meet">
<metadata>
Created by potrace 1.11, written by Peter Selinger 2001-2013
</metadata>
<g transform="translate(0.000000,512.000000) scale(0.100000,-0.100000)"
fill="#000000" stroke="none">
<path d="M4350 4938 c-205 -35 -413 -116 -585 -228 -44 -29 -82 -55 -85 -59
-3 -3 -23 -19 -45 -36 -99 -74 -292 -282 -421 -456 -44 -58 -88 -118 -99 -132
l-20 -26 -215 -4 c-197 -4 -222 -6 -303 -31 -152 -45 -291 -126 -380 -219 -65
-68 -59 -80 148 -287 l175 -175 110 -3 c61 -2 110 -7 110 -10 0 -14 -22 -38
-206 -225 -162 -165 -318 -330 -438 -467 -61 -69 -267 -322 -324 -397 -81
-108 -215 -291 -223 -305 -13 -24 -24 -23 -62 6 -127 95 -344 138 -505 101
-147 -35 -285 -125 -376 -245 l-46 -62 -88 -2 c-57 -2 -103 -9 -132 -21 -51
-21 -116 -63 -142 -92 -17 -18 -15 -21 43 -72 34 -30 64 -50 68 -44 16 25 97
65 143 70 46 6 51 4 45 -11 -4 -10 -10 -46 -13 -82 l-6 -64 81 0 c77 0 81 1
82 23 6 159 106 320 248 396 157 83 328 79 484 -12 73 -43 73 -42 3 -146 -76
-113 -137 -178 -214 -229 -98 -66 -225 -108 -334 -111 l-28 -1 0 -81 0 -81 71
6 c195 16 387 110 520 254 30 32 108 139 174 238 65 98 122 183 127 189 4 5
56 75 115 155 139 190 352 455 438 546 11 11 52 56 90 99 39 43 105 115 147
159 l77 81 143 -142 142 -142 -122 -125 c-224 -231 -306 -406 -311 -664 -3
-159 38 -321 115 -448 43 -72 114 -165 130 -171 13 -5 114 88 114 104 0 4 -18
28 -40 53 -63 71 -149 259 -150 326 0 16 46 34 106 40 147 16 292 -78 341
-222 l11 -31 -54 -17 c-30 -9 -54 -19 -54 -21 0 -14 60 -140 67 -140 4 1 28 7
53 15 60 18 232 19 295 1 151 -42 288 -156 355 -295 22 -45 42 -99 45 -121 4
-22 8 -49 10 -60 2 -11 4 -30 4 -42 1 -22 5 -23 82 -23 l81 0 -6 70 c-16 182
-122 378 -266 492 -121 95 -278 153 -426 157 -28 1 -33 5 -38 35 -12 62 -74
170 -128 224 -61 61 -162 115 -245 132 -53 11 -152 9 -215 -4 -33 -7 -33 -7
-12 87 21 92 62 183 118 260 50 69 545 567 564 567 9 0 12 -30 12 -107 l0
-107 172 -172 c94 -95 184 -178 199 -185 46 -19 75 -4 139 74 74 89 141 216
174 329 32 110 34 136 35 349 l1 177 119 85 c65 48 125 92 132 99 8 7 32 28
54 47 335 281 513 544 604 886 36 138 48 245 50 472 2 205 1 221 -17 244 l-20
24 -229 1 c-184 1 -250 -2 -343 -18z m449 -285 c-1 -146 -16 -289 -38 -370
l-11 -41 -62 14 c-98 23 -174 69 -268 164 -95 94 -141 170 -164 268 l-14 62
36 9 c111 29 176 36 370 39 l153 3 -2 -148z m-667 -101 c32 -81 93 -169 172
-248 108 -108 211 -169 350 -206 l49 -13 -51 -98 c-80 -153 -146 -242 -282
-377 -303 -303 -673 -540 -1085 -695 l-62 -24 -166 167 -167 167 50 123 c153
379 378 728 645 997 66 67 135 134 153 149 58 48 199 136 274 171 l73 34 13
-47 c7 -26 23 -71 34 -100z m-1228 -899 c-52 -103 -94 -193 -94 -200 0 -10
-26 -13 -108 -13 l-107 0 -118 118 c-135 135 -133 121 -18 186 73 42 166 75
231 83 25 3 46 7 48 8 2 2 61 4 131 4 l128 2 -93 -188z m41 -713 l140 -140
-63 -62 -62 -63 -142 142 -143 143 60 60 c33 33 62 60 65 60 3 0 68 -63 145
-140z m894 -69 c-1 -135 -9 -194 -35 -276 -20 -63 -68 -160 -101 -204 l-26
-33 -118 118 -119 119 0 105 0 105 48 19 c58 24 265 126 312 155 19 11 36 21
38 21 2 0 2 -58 1 -129z"/>
<path d="M3636 4224 c-195 -54 -338 -226 -353 -429 -15 -190 91 -377 262 -461
311 -152 660 45 692 391 15 168 -82 358 -225 442 -113 66 -259 89 -376 57z
m224 -162 c163 -54 253 -224 205 -388 -27 -94 -85 -162 -175 -206 -68 -33
-197 -32 -265 2 -64 32 -124 92 -155 155 -34 71 -34 199 -1 267 72 149 238
221 391 170z"/>
<path d="M2433 2596 c-99 -103 -223 -279 -223 -316 0 -5 30 -23 66 -40 51 -23
70 -27 80 -19 8 6 14 16 14 22 0 23 115 178 190 256 80 82 81 84 63 104 -28
32 -87 86 -94 87 -4 0 -47 -42 -96 -94z"/>
<path d="M2132 2093 c1 -5 -3 -30 -10 -58 -22 -92 -22 -105 -4 -106 9 0 24 -2
32 -4 8 -1 36 -6 61 -10 l45 -7 12 54 c7 29 15 63 18 74 5 19 -2 24 -64 43
-75 23 -93 25 -90 14z"/>
<path d="M2112 1105 c-58 -13 -183 -73 -221 -105 l-24 -21 24 -27 c13 -15 37
-41 53 -59 l29 -32 28 20 c15 11 54 32 86 47 50 23 71 27 153 27 85 0 102 -4
160 -31 95 -45 153 -101 197 -190 34 -69 37 -82 37 -162 0 -48 -4 -100 -8
-117 -7 -30 -7 -30 62 -54 39 -13 75 -21 80 -17 17 10 35 146 29 221 -20 242
-193 444 -429 500 -70 16 -186 16 -256 0z"/>
<path d="M1090 1029 c-118 -20 -264 -114 -344 -221 -25 -34 -30 -36 -54 -26
-46 18 -195 19 -254 2 -60 -18 -143 -58 -153 -74 -7 -11 18 -55 58 -103 l23
-28 54 27 c62 31 162 40 227 21 128 -37 227 -160 232 -289 1 -16 12 -18 81
-18 l80 0 0 28 c0 89 -64 233 -136 304 l-44 44 30 36 c42 50 116 102 175 123
28 10 86 19 131 21 66 2 91 -2 140 -22 67 -27 66 -28 113 57 l31 56 -60 26
c-99 44 -210 55 -330 36z"/>
</g>
</svg>
